<svg xmlns="http://www.w3.org/2000/svg" viewBox="0 0 120 120" width="120" height="120"><g fill="none" stroke="#000" stroke-width="0.5"><path d="M0,10.0 L2,11.0 L4,12.0 L6,12.9 L8,13.7 L10,14.3 L12,14.8 L14,15.0 L16,15.0 L18,14.8 L20,14.3 L22,13.7 L24,12.9 L26,12.0 L28,11.0 L30,10.0 L32,9.0 L34,8.0 L36,7.1 L38,6.3 L40,5.7 L42,5.2 L44,5.0 L46,5.0 L48,5.2 L50,5.7 L52,6.3 L54,7.1 L56,8.0 L58,9.0 L60,10.0 L62,11.0 L64,12.0 L66,12.9 L68,13.7 L70,14.3 L72,14.8 L74,15.0 L76,15.0 L78,14.8 L80,14.3 L82,13.7 L84,12.9 L86,12.0 L88,11.0 L90,10.0 L92,9.0 L94,8.0 L96,7.1 L98,6.3 L100,5.7 L102,5.2 L104,5.0 L106,5.0 L108,5.2 L110,5.7 L112,6.3 L114,7.1 L116,8.0 L118,9.0 L120,10.0"/><path d="M0,34.5 L2,34.8 L4,35.0 L6,34.9 L8,34.7 L10,34.2 L12,33.5 L14,32.7 L16,31.8 L18,30.8 L20,29.7 L22,28.7 L24,27.7 L26,26.9 L28,26.1 L30,25.5 L32,25.2 L34,25.0 L36,25.1 L38,25.3 L40,25.8 L42,26.5 L44,27.3 L46,28.2 L48,29.2 L50,30.3 L52,31.3 L54,32.3 L56,33.1 L58,33.9 L60,34.5 L62,34.8 L64,35.0 L66,34.9 L68,34.7 L70,34.2 L72,33.5 L74,32.7 L76,31.8 L78,30.8 L80,29.7 L82,28.7 L84,27.7 L86,26.9 L88,26.1 L90,25.5 L92,25.2 L94,25.0 L96,25.1 L98,25.3 L100,25.8 L102,26.5 L104,27.3 L106,28.2 L108,29.2 L110,30.3 L112,31.3 L114,32.3 L116,33.1 L118,33.9 L120,34.5"/><path d="M0,54.0 L2,53.3 L4,52.5 L6,51.5 L8,50.5 L10,49.5 L12,48.5 L14,47.5 L16,46.7 L18,46.0 L20,45.4 L22,45.1 L24,45.0 L26,45.1 L28,45.4 L30,46.0 L32,46.7 L34,47.5 L36,48.5 L38,49.5 L40,50.5 L42,51.5 L44,52.5 L46,53.3 L48,54.0 L50,54.6 L52,54.9 L54,55.0 L56,54.9 L58,54.6 L60,54.0 L62,53.3 L64,52.5 L66,51.5 L68,50.5 L70,49.5 L72,48.5 L74,47.5 L76,46.7 L78,46.0 L80,45.4 L82,45.1 L84,45.0 L86,45.1 L88,45.4 L90,46.0 L92,46.7 L94,47.5 L96,48.5 L98,49.5 L100,50.5 L102,51.5 L104,52.5 L106,53.3 L108,54.0 L110,54.6 L112,54.9 L114,55.0 L116,54.9 L118,54.6 L120,54.0"/><path d="M0,69.2 L2,68.2 L4,67.3 L6,66.5 L8,65.8 L10,65.3 L12,65.1 L14,65.0 L16,65.2 L18,65.5 L20,66.1 L22,66.9 L24,67.7 L26,68.7 L28,69.7 L30,70.8 L32,71.8 L34,72.7 L36,73.5 L38,74.2 L40,74.7 L42,74.9 L44,75.0 L46,74.8 L48,74.5 L50,73.9 L52,73.1 L54,72.3 L56,71.3 L58,70.3 L60,69.2 L62,68.2 L64,67.3 L66,66.5 L68,65.8 L70,65.3 L72,65.1 L74,65.0 L76,65.2 L78,65.5 L80,66.1 L82,66.9 L84,67.7 L86,68.7 L88,69.7 L90,70.8 L92,71.8 L94,72.7 L96,73.5 L98,74.2 L100,74.7 L102,74.9 L104,75.0 L106,74.8 L108,74.5 L110,73.9 L112,73.1 L114,72.3 L116,71.3 L118,70.3 L120,69.2"/><path d="M0,85.2 L2,85.0 L4,85.0 L6,85.2 L8,85.7 L10,86.3 L12,87.1 L14,88.0 L16,89.0 L18,90.0 L20,91.0 L22,92.0 L24,92.9 L26,93.7 L28,94.3 L30,94.8 L32,95.0 L34,95.0 L36,94.8 L38,94.3 L40,93.7 L42,92.9 L44,92.0 L46,91.0 L48,90.0 L50,89.0 L52,88.0 L54,87.1 L56,86.3 L58,85.7 L60,85.2 L62,85.0 L64,85.0 L66,85.2 L68,85.7 L70,86.3 L72,87.1 L74,88.0 L76,89.0 L78,90.0 L80,91.0 L82,92.0 L84,92.9 L86,93.7 L88,94.3 L90,94.8 L92,95.0 L94,95.0 L96,94.8 L98,94.3 L100,93.7 L102,92.9 L104,92.0 L106,91.0 L108,90.0 L110,89.0 L112,88.0 L114,87.1 L116,86.3 L118,85.7 L120,85.2"/><path d="M0,106.5 L2,107.3 L4,108.2 L6,109.2 L8,110.3 L10,111.3 L12,112.3 L14,113.2 L16,113.9 L18,114.5 L20,114.8 L22,115.0 L24,114.9 L26,114.7 L28,114.2 L30,113.5 L32,112.7 L34,111.8 L36,110.8 L38,109.7 L40,108.7 L42,107.7 L44,106.8 L46,106.1 L48,105.5 L50,105.2 L52,105.0 L54,105.1 L56,105.3 L58,105.8 L60,106.5 L62,107.3 L64,108.2 L66,109.2 L68,110.3 L70,111.3 L72,112.3 L74,113.2 L76,113.9 L78,114.5 L80,114.8 L82,115.0 L84,114.9 L86,114.7 L88,114.2 L90,113.5 L92,112.7 L94,111.8 L96,110.8 L98,109.7 L100,108.7 L102,107.7 L104,106.8 L106,106.1 L108,105.5 L110,105.2 L112,105.0 L114,105.1 L116,105.3 L118,105.8 L120,106.5"/></g></svg>